# xmcd
#
# Track frame offsets: 
#        150
#        16730
#        43700
#        61047
#        81650
#        104360
#        132600
#        171190
#        211637
#        236740
#
# Disc length: 3574 seconds
#
# Revision: 1
# Processed by: cddbd v1.5.2PL0 Copyright (c) Steve Scherf et al.
# Submitted via: ExactAudioCopy v0.95a4
#
DISCID=830df40a
DTITLE=Eric Clapton - One More Car, One More Rider (Live on Tour 2001)
DTITLE=Various Artist - Disc 1
DYEAR=2001
DGENRE=Blues
TTITLE0=Key to the Highway
TTITLE1=Reptile
TTITLE2=Got You on My Mind
TTITLE3=Tears in Heaven
TTITLE4=Bell Bottom Blues
TTITLE5=Change the World
TTITLE6=My Father's Eyes
TTITLE7=River of Tears
TTITLE8=Goin' Down Slow
TTITLE9=She's Gone
EXTD=
EXTT0=
EXTT1=
EXTT2=
EXTT3=
EXTT4=
EXTT5=
EXTT6=
EXTT7=
EXTT8=
EXTT9=
PLAYORDER=
